# Blender v2.79 (sub 0) OBJ File: 'room.blend'
# www.blender.org
mtllib keyboard.mtl
o Plane.018_Plane.130
v -0.269205 -0.010336 0.015525
v -0.267703 -0.011832 0.015387
v -0.267703 -0.010473 0.017020
v 0.267703 -0.010473 0.017020
v 0.267703 -0.011832 0.015387
v 0.269205 -0.010336 0.015525
v -0.269205 0.013395 -0.243224
v -0.267703 0.013533 -0.244719
v -0.267703 0.011900 -0.243361
v 0.269205 0.013395 -0.243224
v 0.267703 0.011900 -0.243361
v 0.267703 0.013533 -0.244719
v -0.269205 0.002875 0.016736
v -0.267703 0.002738 0.018232
v -0.267703 0.004371 0.016873
v 0.267703 0.002738 0.018232
v 0.269205 0.002875 0.016736
v 0.267703 0.004371 0.016873
v -0.269205 0.026607 -0.242012
v -0.267703 0.028102 -0.241875
v -0.267703 0.026744 -0.243508
v 0.269205 0.026607 -0.242012
v 0.267703 0.026744 -0.243508
v 0.267703 0.028102 -0.241875
v 0.205502 -0.009821 -0.239427
v 0.207004 -0.009821 -0.237925
v 0.205502 -0.011323 -0.237925
v 0.207004 0.011044 -0.237925
v 0.205502 0.011044 -0.239427
v 0.205502 0.012546 -0.237925
v 0.207004 -0.009821 -0.227463
v 0.205502 -0.011323 -0.227463
v 0.205502 -0.011323 -0.230467
v 0.207004 -0.009821 -0.230467
v 0.207004 0.011044 -0.230467
v 0.205502 0.012546 -0.230467
v 0.205502 0.011044 -0.228965
v 0.185297 -0.009821 -0.239427
v 0.185297 -0.011323 -0.237925
v 0.183795 -0.009821 -0.237925
v 0.183795 0.011044 -0.237925
v 0.185297 0.012546 -0.237925
v 0.185297 0.011044 -0.239427
v 0.183795 -0.009821 -0.227463
v 0.183795 -0.009821 -0.230467
v 0.185297 -0.011323 -0.230467
v 0.185297 -0.011323 -0.227463
v 0.183795 0.011044 -0.230467
v 0.185297 0.011044 -0.228965
v 0.185297 0.012546 -0.230467
v 0.207004 -0.009821 -0.237925
v 0.205502 -0.009821 -0.239427
v 0.205502 -0.006817 -0.239427
v 0.207004 -0.006817 -0.237925
v 0.207004 -0.009821 -0.227463
v 0.207004 -0.009821 -0.230467
v 0.207004 -0.006817 -0.230467
v 0.205502 -0.006817 -0.228965
v 0.205502 -0.008319 -0.227463
v 0.183795 -0.009821 -0.237925
v 0.183795 -0.006817 -0.237925
v 0.185297 -0.006817 -0.239427
v 0.185297 -0.009821 -0.239427
v 0.183795 -0.009821 -0.227463
v 0.185297 -0.008319 -0.227463
v 0.185297 -0.006817 -0.228965
v 0.183795 -0.006817 -0.230467
v 0.183795 -0.009821 -0.230467
v 0.207004 -0.009821 -0.223350
v 0.205502 -0.009821 -0.221848
v 0.205502 -0.011323 -0.223350
v 0.183795 -0.009821 -0.223350
v 0.185297 -0.011323 -0.223350
v 0.185297 -0.009821 -0.221848
v 0.207004 -0.009821 -0.223350
v 0.205502 -0.008319 -0.223350
v 0.205502 -0.009821 -0.221848
v 0.183795 -0.009821 -0.223350
v 0.185297 -0.009821 -0.221848
v 0.185297 -0.008319 -0.223350
v -0.205502 -0.009821 -0.239427
v -0.207004 -0.009821 -0.237925
v -0.205502 -0.011323 -0.237925
v -0.207004 0.011044 -0.237925
v -0.205502 0.011044 -0.239427
v -0.205502 0.012546 -0.237925
v -0.207004 -0.009821 -0.227463
v -0.205502 -0.011323 -0.227463
v -0.205502 -0.011323 -0.230467
v -0.207004 -0.009821 -0.230467
v -0.207004 0.011044 -0.230467
v -0.205502 0.012546 -0.230467
v -0.205502 0.011044 -0.228965
v -0.185297 -0.009821 -0.239427
v -0.185297 -0.011323 -0.237925
v -0.183795 -0.009821 -0.237925
v -0.183795 0.011044 -0.237925
v -0.185297 0.012546 -0.237925
v -0.185297 0.011044 -0.239427
v -0.183795 -0.009821 -0.227463
v -0.183795 -0.009821 -0.230467
v -0.185297 -0.011323 -0.230467
v -0.185297 -0.011323 -0.227463
v -0.183795 0.011044 -0.230467
v -0.185297 0.011044 -0.228965
v -0.185297 0.012546 -0.230467
v -0.207004 -0.009821 -0.237925
v -0.205502 -0.009821 -0.239427
v -0.205502 -0.006817 -0.239427
v -0.207004 -0.006817 -0.237925
v -0.207004 -0.009821 -0.227463
v -0.207004 -0.009821 -0.230467
v -0.207004 -0.006817 -0.230467
v -0.205502 -0.006817 -0.228965
v -0.205502 -0.008319 -0.227463
v -0.183795 -0.009821 -0.237925
v -0.183795 -0.006817 -0.237925
v -0.185297 -0.006817 -0.239427
v -0.185297 -0.009821 -0.239427
v -0.183795 -0.009821 -0.227463
v -0.185297 -0.008319 -0.227463
v -0.185297 -0.006817 -0.228965
v -0.183795 -0.006817 -0.230467
v -0.183795 -0.009821 -0.230467
v -0.207004 -0.009821 -0.223350
v -0.205502 -0.009821 -0.221848
v -0.205502 -0.011323 -0.223350
v -0.183795 -0.009821 -0.223350
v -0.185297 -0.011323 -0.223350
v -0.185297 -0.009821 -0.221848
v -0.207004 -0.009821 -0.223350
v -0.205502 -0.008319 -0.223350
v -0.205502 -0.009821 -0.221848
v -0.183795 -0.009821 -0.223350
v -0.185297 -0.009821 -0.221848
v -0.185297 -0.008319 -0.223350
vt 0.971320 0.002674
vt 0.971320 0.956001
vt 0.947991 0.956001
vt 0.947991 0.002674
vt 0.000000 0.000000
vt 0.000000 0.000000
vt 0.000000 0.000000
vt 0.000000 0.000000
vt 0.456666 0.956001
vt 0.000000 0.956001
vt 0.000000 0.002674
vt 0.456666 0.002674
vt 0.919016 0.002674
vt 0.919016 0.956001
vt 0.462349 0.956001
vt 0.462349 0.002674
vt 0.997352 0.002674
vt 0.997353 0.465328
vt 0.973968 0.465328
vt 0.973968 0.002674
vt 0.942345 0.002674
vt 0.942345 0.956001
vt 0.919016 0.956001
vt 0.919016 0.002674
vt 0.081641 0.961350
vt 0.094786 0.961350
vt 0.094786 0.997326
vt 0.081641 0.997326
vt 0.252686 0.961350
vt 0.252686 0.993154
vt 0.239539 0.993154
vt 0.239539 0.961350
vt 0.002707 0.961350
vt 0.034183 0.961350
vt 0.034183 0.997326
vt 0.002707 0.997326
vt 0.000000 0.000000
vt 0.000000 0.000000
vt 0.000000 0.000000
vt 0.000000 0.000000
vt 0.257980 0.961350
vt 0.271127 0.961350
vt 0.271127 0.993154
vt 0.257980 0.993154
vt 0.000000 0.000000
vt 0.000000 0.000000
vt 0.000000 0.000000
vt 0.000000 0.000000
vt 0.000000 0.000000
vt 0.000000 0.000000
vt 0.000000 0.000000
vt 0.000000 0.000000
vt 0.100080 0.997326
vt 0.100080 0.961350
vt 0.107329 0.961350
vt 0.107329 0.997326
vt 0.000000 0.000000
vt 0.000000 0.000000
vt 0.000000 0.000000
vt 0.000000 0.000000
vt 0.984465 0.974654
vt 0.971320 0.974654
vt 0.971320 0.938678
vt 0.984465 0.938678
vt 0.000000 0.000000
vt 0.000000 0.000000
vt 0.000000 0.000000
vt 0.000000 0.000000
vt 0.198656 0.994651
vt 0.167180 0.994651
vt 0.167180 0.958676
vt 0.198656 0.958676
vt 0.000000 0.000000
vt 0.000000 0.000000
vt 0.000000 0.000000
vt 0.000000 0.000000
vt 0.330529 0.997326
vt 0.330529 0.961350
vt 0.337778 0.961350
vt 0.337778 0.997326
vt 0.110016 0.961350
vt 0.123161 0.961350
vt 0.123161 0.997326
vt 0.110016 0.997326
vt 0.224347 0.961350
vt 0.224347 0.993154
vt 0.211201 0.993154
vt 0.211201 0.961350
vt 0.042184 0.961350
vt 0.073660 0.961350
vt 0.073660 0.997326
vt 0.042184 0.997326
vt 0.000000 0.000000
vt 0.000000 0.000000
vt 0.000000 0.000000
vt 0.000000 0.000000
vt 0.286319 0.961350
vt 0.299465 0.961350
vt 0.299465 0.993154
vt 0.286319 0.993154
vt 0.000000 0.000000
vt 0.000000 0.000000
vt 0.000000 0.000000
vt 0.000000 0.000000
vt 0.000000 0.000000
vt 0.000000 0.000000
vt 0.000000 0.000000
vt 0.000000 0.000000
vt 0.128455 0.997326
vt 0.128455 0.961350
vt 0.135704 0.961350
vt 0.135704 0.997326
vt 0.000000 0.000000
vt 0.000000 0.000000
vt 0.000000 0.000000
vt 0.000000 0.000000
vt 0.325154 0.997326
vt 0.312009 0.997326
vt 0.312009 0.961350
vt 0.325154 0.961350
vt 0.135704 0.958676
vt 0.167180 0.958676
vt 0.167180 0.994651
vt 0.135704 0.994651
vt 0.000000 0.000000
vt 0.000000 0.000000
vt 0.000000 0.000000
vt 0.000000 0.000000
vt 0.343153 0.997326
vt 0.343153 0.961350
vt 0.350402 0.961350
vt 0.350402 0.997326
vt 0.456868 0.958676
vt 0.459508 0.956001
vt 0.459508 0.002674
vt 0.456868 0.000000
vt 0.942527 0.958676
vt 0.945168 0.956001
vt 0.942527 0.000000
vt 0.945168 0.002674
vt 0.947809 0.000000
vt 0.945168 0.002674
vt 0.947809 0.958676
vt 0.945168 0.956001
vt 0.462148 0.000000
vt 0.459508 0.002674
vt 0.462148 0.958676
vt 0.459508 0.956001
vt 0.078953 0.961350
vt 0.081601 0.958676
vt 0.002647 0.958676
vt 0.000000 0.961350
vt 0.363739 0.977304
vt 0.361091 0.977304
vt 0.361091 0.971956
vt 0.363739 0.971956
vt 0.984505 0.977328
vt 0.987153 0.974654
vt 0.078953 0.997326
vt 0.081601 1.000000
vt 0.002647 1.000000
vt 0.000000 0.997326
vt 0.355796 0.977304
vt 0.355796 0.971956
vt 0.358444 0.971956
vt 0.358444 0.977304
vt 0.984505 0.936004
vt 0.987153 0.938678
vt 0.257980 0.998503
vt 0.255333 0.998503
vt 0.255333 0.993154
vt 0.276421 0.998503
vt 0.271127 0.998503
vt 0.273774 0.993154
vt 0.276421 0.995829
vt 0.252686 0.998503
vt 0.255333 0.993154
vt 0.255333 0.998503
vt 0.234245 0.998503
vt 0.234245 0.995829
vt 0.236892 0.993154
vt 0.239539 0.998503
vt 0.987213 0.977328
vt 0.987153 0.974654
vt 0.989860 0.974654
vt 0.987213 0.936004
vt 0.989860 0.938678
vt 0.987153 0.938678
vt 0.337818 1.000000
vt 0.340465 0.997326
vt 0.337818 0.958676
vt 0.340465 0.961350
vt 0.107329 0.961350
vt 0.109976 0.958676
vt 0.042123 0.958676
vt 0.039477 0.961350
vt 0.366386 0.977304
vt 0.363739 0.977304
vt 0.363739 0.971956
vt 0.366386 0.971956
vt 0.325194 1.000000
vt 0.327842 0.997326
vt 0.107329 0.997326
vt 0.109976 1.000000
vt 0.042123 1.000000
vt 0.039477 0.997326
vt 0.358444 0.977304
vt 0.358444 0.971956
vt 0.361091 0.971956
vt 0.361091 0.977304
vt 0.325194 0.958676
vt 0.327842 0.961350
vt 0.286319 0.998503
vt 0.283671 0.998503
vt 0.283671 0.993154
vt 0.304760 0.998503
vt 0.299465 0.998503
vt 0.302112 0.993154
vt 0.304760 0.995829
vt 0.224347 0.998503
vt 0.226995 0.993154
vt 0.226995 0.998503
vt 0.205906 0.998503
vt 0.205906 0.995829
vt 0.208554 0.993154
vt 0.211201 0.998503
vt 0.353150 1.000000
vt 0.353089 0.997326
vt 0.355796 0.997326
vt 0.353150 0.958676
vt 0.355796 0.961350
vt 0.353089 0.961350
vt 0.350442 1.000000
vt 0.353089 0.997326
vt 0.350442 0.958676
vt 0.353089 0.961350
vt 0.971320 0.933330
vt 0.971320 0.470676
vt 0.973968 0.470676
vt 0.973968 0.933330
vt 1.000000 0.002674
vt 1.000000 0.465328
vt 0.997353 0.933330
vt 0.997352 0.470676
vt 1.000000 0.470676
vt 1.000000 0.933329
vt 0.971321 0.465328
vt 0.971320 0.002674
vt 0.973968 0.468002
vt 0.997352 0.468002
vt 0.997353 0.936004
vt 0.973968 0.936004
vt 0.997353 0.468002
vt 0.973968 0.468002
vt 0.973968 0.000000
vt 0.997353 0.000000
vt 0.363739 0.958676
vt 0.361091 0.958676
vt 0.257980 0.958676
vt 0.271127 0.958676
vt 0.358444 0.958676
vt 0.355796 0.958676
vt 0.239539 0.958676
vt 0.252686 0.958676
vt 0.255333 0.961350
vt 0.273774 0.961350
vt 0.255333 0.961350
vt 0.236892 0.961350
vt 0.039477 0.961350
vt 0.039477 0.997326
vt 0.327842 0.997326
vt 0.327842 0.961350
vt 0.283671 0.995829
vt 0.283671 0.998503
vt 0.361091 0.984628
vt 0.363739 0.984628
vt 0.355796 0.984628
vt 0.358444 0.984628
vt 0.226995 0.998503
vt 0.226995 0.995829
vt 0.366386 0.958676
vt 0.363739 0.958676
vt 0.286319 0.958676
vt 0.299465 0.958676
vt 0.361091 0.958676
vt 0.358444 0.958676
vt 0.211201 0.958676
vt 0.224347 0.958676
vt 0.283671 0.961350
vt 0.302112 0.961350
vt 0.226995 0.961350
vt 0.208554 0.961350
vt 0.078953 0.961350
vt 0.078953 0.997326
vt 0.340465 0.997326
vt 0.340465 0.961350
vt 0.312009 0.995829
vt 0.312009 0.998503
vt 0.363739 0.984628
vt 0.366386 0.984628
vt 0.358444 0.984628
vt 0.361091 0.984628
vt 0.198656 0.998503
vt 0.198656 0.995829
vn 0.0000 -0.0913 0.9958
vn 0.0000 0.0000 1.0000
vn 0.0000 -0.9958 -0.0913
vn 0.0000 0.9958 0.0913
vn 1.0000 0.0000 0.0000
vn 0.0000 0.0913 -0.9958
vn 0.0000 -1.0000 0.0000
vn -1.0000 0.0000 0.0000
vn 0.0000 0.0000 -1.0000
vn 0.0000 1.0000 0.0000
vn -0.5773 -0.6277 0.5222
vn 0.5773 -0.6277 0.5222
vn -0.5773 -0.5222 -0.6277
vn 0.5773 -0.5222 -0.6277
vn -0.5773 0.5222 0.6277
vn 0.5773 0.5222 0.6277
vn -0.5773 0.6277 -0.5222
vn 0.5773 0.6277 -0.5222
vn 0.5774 -0.5774 -0.5773
vn 0.5774 0.5774 -0.5773
vn 0.7071 -0.7071 0.0000
vn 0.5774 0.5774 0.5773
vn -0.5773 -0.5774 -0.5773
vn -0.5773 0.5774 -0.5773
vn -0.7071 -0.7071 0.0000
vn -0.5773 0.5774 0.5773
vn 0.7071 0.0000 -0.7071
vn 0.8552 0.3665 0.3665
vn -0.7071 0.0000 -0.7071
vn -0.8552 0.3665 0.3665
vn 0.5774 -0.5774 0.5773
vn -0.5773 -0.5774 0.5773
vn 0.7071 0.7071 0.0000
vn -0.7071 0.7071 0.0000
vn 0.7071 0.0000 0.7071
vn 0.8552 -0.3665 -0.3665
vn -0.7071 0.0000 0.7071
vn -0.8552 -0.3665 -0.3665
vn -0.7071 -0.7042 -0.0646
vn 0.0000 -0.7687 0.6396
vn 0.7071 -0.7042 -0.0646
vn -0.0000 -0.6396 -0.7687
vn -0.7071 0.7042 0.0646
vn 0.0000 0.6396 0.7687
vn 0.7071 0.7042 0.0646
vn 0.0000 0.7687 -0.6396
vn -0.7071 -0.0646 0.7042
vn -0.7071 0.0646 -0.7042
vn 0.7071 0.0646 -0.7042
vn 0.7071 -0.0646 0.7042
vn 0.0000 0.7071 -0.7071
vn 0.0000 0.7071 0.7071
vn 0.0000 -0.7071 -0.7071
vn 0.0000 -0.7071 0.7071
usemtl None
s off
f 3/1/1 4/2/1 16/3/1 14/4/1
f 52/5/2 25/6/2 38/7/2 63/8/2
f 2/9/3 9/10/3 11/11/3 5/12/3
f 15/13/4 18/14/4 24/15/4 20/16/4
f 6/17/5 10/18/5 22/19/5 17/20/5
f 12/21/6 8/22/6 21/23/6 23/24/6
f 27/25/7 33/26/7 46/27/7 39/28/7
f 41/29/8 61/30/8 67/31/8 48/32/8
f 29/33/9 53/34/9 62/35/9 43/36/9
f 60/37/2 40/38/2 45/39/2 68/40/2
f 28/41/5 35/42/5 57/43/5 54/44/5
f 51/45/2 56/46/2 34/47/2 26/48/2
f 31/49/2 55/50/2 75/51/2 69/52/2
f 47/53/7 32/54/7 71/55/7 73/56/7
f 64/57/2 44/58/2 72/59/2 78/60/2
f 36/61/10 30/62/10 42/63/10 50/64/10
f 108/65/2 81/66/2 94/67/2 119/68/2
f 58/69/2 37/70/2 49/71/2 66/72/2
f 70/73/2 77/74/2 79/75/2 74/76/2
f 59/77/10 65/78/10 80/79/10 76/80/10
f 83/81/10 89/82/10 102/83/10 95/84/10
f 97/85/8 117/86/8 123/87/8 104/88/8
f 85/89/2 109/90/2 118/91/2 99/92/2
f 116/93/2 96/94/2 101/95/2 124/96/2
f 84/97/5 91/98/5 113/99/5 110/100/5
f 107/101/2 112/102/2 90/103/2 82/104/2
f 87/105/2 111/106/2 131/107/2 125/108/2
f 103/109/10 88/110/10 127/111/10 129/112/10
f 120/113/2 100/114/2 128/115/2 134/116/2
f 92/117/7 86/118/7 98/119/7 106/120/7
f 114/121/9 93/122/9 105/123/9 122/124/9
f 126/125/2 133/126/2 135/127/2 130/128/2
f 115/129/7 121/130/7 136/131/7 132/132/7
f 1/133/11 2/9/11 3/134/11
f 4/135/12 5/12/12 6/136/12
f 7/137/13 8/22/13 9/138/13
f 10/139/14 11/140/14 12/21/14
f 13/141/15 14/4/15 15/142/15
f 16/3/16 17/143/16 18/144/16
f 19/145/17 20/16/17 21/146/17
f 22/147/18 23/148/18 24/15/18
f 25/149/19 26/150/19 27/25/19
f 28/151/20 29/33/20 30/152/20
f 31/153/21 32/154/21 33/155/21 34/156/21
f 35/157/22 36/61/22 37/158/22
f 38/159/23 39/28/23 40/160/23
f 41/161/24 42/162/24 43/36/24
f 44/163/25 45/164/25 46/165/25 47/166/25
f 48/167/26 49/168/26 50/64/26
f 51/169/27 52/170/27 53/171/27 54/44/27
f 55/172/28 56/173/28 57/43/28 58/174/28 59/175/28
f 60/176/29 61/30/29 62/177/29 63/178/29
f 64/179/30 65/180/30 66/181/30 67/31/30 68/182/30
f 69/183/31 70/184/31 71/185/31
f 72/186/32 73/187/32 74/188/32
f 75/189/22 76/80/22 77/190/22
f 78/191/26 79/192/26 80/79/26
f 81/193/22 82/194/22 83/81/22
f 84/195/31 85/89/31 86/196/31
f 87/197/33 88/198/33 89/199/33 90/200/33
f 91/201/19 92/117/19 93/202/19
f 94/203/26 95/84/26 96/204/26
f 97/205/32 98/206/32 99/92/32
f 100/207/34 101/208/34 102/209/34 103/210/34
f 104/211/23 105/212/23 106/120/23
f 107/213/35 108/214/35 109/215/35 110/100/35
f 111/216/36 112/217/36 113/99/36 114/218/36 115/219/36
f 116/220/37 117/86/37 118/221/37 119/222/37
f 120/223/38 121/224/38 122/225/38 123/87/38 124/226/38
f 125/227/20 126/228/20 127/229/20
f 128/230/24 129/231/24 130/232/24
f 131/233/19 132/132/19 133/234/19
f 134/235/23 135/236/23 136/131/23
f 9/237/39 2/238/39 1/239/39 7/240/39
f 2/9/40 5/12/40 4/135/40 3/134/40
f 5/241/41 11/242/41 10/18/41 6/17/41
f 11/140/42 9/138/42 8/22/42 12/21/42
f 19/243/43 13/244/43 15/245/43 20/246/43
f 14/4/44 16/3/44 18/144/44 15/142/44
f 17/20/45 22/19/45 24/247/45 18/248/45
f 23/148/46 21/146/46 20/16/46 24/15/46
f 3/249/47 14/250/47 13/244/47 1/239/47
f 21/251/48 8/252/48 7/240/48 19/243/48
f 22/19/49 10/18/49 12/253/49 23/254/49
f 6/17/50 17/20/50 16/255/50 4/256/50
f 51/45/2 26/48/2 25/6/2 52/5/2
f 55/50/2 31/49/2 34/47/2 56/46/2
f 26/257/21 34/156/21 33/155/21 27/258/21
f 35/42/33 28/41/33 30/259/33 36/260/33
f 63/8/2 38/7/2 40/38/2 60/37/2
f 68/40/2 45/39/2 44/58/2 64/57/2
f 39/261/25 46/165/25 45/164/25 40/262/25
f 50/263/34 42/264/34 41/29/34 48/32/34
f 29/33/51 43/36/51 42/162/51 30/152/51
f 49/168/52 37/158/52 36/61/52 50/64/52
f 46/27/7 33/26/7 32/54/7 47/53/7
f 38/159/53 25/149/53 27/25/53 39/28/53
f 28/41/27 54/44/27 53/171/27 29/265/27
f 37/266/35 58/174/35 57/43/35 35/42/35
f 43/267/29 62/177/29 61/30/29 41/29/29
f 48/32/37 67/31/37 66/181/37 49/268/37
f 52/269/9 63/270/9 62/35/9 53/34/9
f 58/271/52 66/272/52 65/78/52 59/77/52
f 60/176/8 68/182/8 67/31/8 61/30/8
f 56/173/5 51/169/5 54/44/5 57/43/5
f 77/74/2 70/73/2 69/52/2 75/51/2
f 78/60/2 72/59/2 74/76/2 79/75/2
f 73/187/54 71/185/54 70/184/54 74/188/54
f 76/80/52 80/79/52 79/192/52 77/190/52
f 59/175/33 76/273/33 75/274/33 55/172/33
f 71/275/21 32/154/21 31/153/21 69/276/21
f 72/277/25 44/163/25 47/166/25 73/278/25
f 64/179/34 78/279/34 80/280/34 65/180/34
f 107/101/2 82/104/2 81/66/2 108/65/2
f 111/106/2 87/105/2 90/103/2 112/102/2
f 82/281/33 90/200/33 89/199/33 83/282/33
f 91/98/21 84/97/21 86/283/21 92/284/21
f 119/68/2 94/67/2 96/94/2 116/93/2
f 124/96/2 101/95/2 100/114/2 120/113/2
f 95/285/34 102/209/34 101/208/34 96/286/34
f 106/287/25 98/288/25 97/85/25 104/88/25
f 85/89/54 99/92/54 98/206/54 86/196/54
f 105/212/53 93/202/53 92/117/53 106/120/53
f 102/83/10 89/82/10 88/110/10 103/109/10
f 94/203/52 81/193/52 83/81/52 95/84/52
f 84/97/35 110/100/35 109/215/35 85/289/35
f 93/290/27 114/218/27 113/99/27 91/98/27
f 99/291/37 118/221/37 117/86/37 97/85/37
f 104/88/29 123/87/29 122/225/29 105/292/29
f 108/293/2 119/294/2 118/91/2 109/90/2
f 114/295/53 122/296/53 121/130/53 115/129/53
f 116/220/8 124/226/8 123/87/8 117/86/8
f 112/217/5 107/213/5 110/100/5 113/99/5
f 133/126/2 126/125/2 125/108/2 131/107/2
f 134/116/2 128/115/2 130/128/2 135/127/2
f 129/231/51 127/229/51 126/228/51 130/232/51
f 132/132/53 136/131/53 135/236/53 133/234/53
f 115/219/21 132/297/21 131/298/21 111/216/21
f 127/299/33 88/198/33 87/197/33 125/300/33
f 128/301/34 100/207/34 103/210/34 129/302/34
f 120/223/25 134/303/25 136/304/25 121/224/25
f 7/240/8 1/239/8 13/244/8 19/243/8
